<svg width="189" height="40" viewBox="0 0 189 40" fill="none" xmlns="http://www.w3.org/2000/svg">
<path d="M54.926 27.7411C53.3532 27.7411 52.0425 27.4938 50.994 26.9992C49.9454 26.4771 48.9935 25.6664 48.1381 24.5672V36.1501L44.4544 40V7.25474H48.1381V10.1402C48.9935 9.09591 50.0144 8.25777 51.2009 7.62572C52.3874 6.99368 53.6291 6.67766 54.926 6.67766C56.3332 6.67766 57.6715 6.95246 58.9408 7.50206C60.2376 8.02419 61.3552 8.77989 62.2933 9.76917C63.2591 10.7585 64.0041 11.8989 64.5284 13.1904C65.0802 14.4545 65.3561 15.8011 65.3561 17.23C65.3561 18.659 65.0802 20.0055 64.5284 21.2696C64.0041 22.5337 63.2591 23.6604 62.2933 24.6496C61.3552 25.6114 60.2376 26.3671 58.9408 26.9167C57.6715 27.4663 56.3332 27.7411 54.926 27.7411ZM54.926 10.4287C54.0154 10.4287 53.1462 10.6073 52.3185 10.9646C51.4907 11.2943 50.7732 11.7752 50.1662 12.4073C49.5591 13.0393 49.0763 13.7813 48.7176 14.6331C48.3588 15.4575 48.1795 16.3232 48.1795 17.23C48.1795 18.1369 48.3588 19.0025 48.7176 19.8269C49.0763 20.6513 49.5591 21.3795 50.1662 22.0115C50.7732 22.6436 51.4907 23.1382 52.3185 23.4955C53.1462 23.8527 54.0154 24.0313 54.926 24.0313C55.8366 24.0313 56.7057 23.8527 57.5335 23.4955C58.3613 23.1382 59.0787 22.6436 59.6858 22.0115C60.2928 21.3795 60.7619 20.6513 61.093 19.8269C61.4517 19.0025 61.6311 18.1369 61.6311 17.23C61.6311 16.3232 61.4517 15.4575 61.093 14.6331C60.7619 13.7813 60.2928 13.0393 59.6858 12.4073C59.0787 11.7752 58.3613 11.2943 57.5335 10.9646C56.7057 10.6073 55.8366 10.4287 54.926 10.4287Z" fill="white"/>
<path d="M70.9738 18.6315C70.9738 19.291 71.2084 19.978 71.6774 20.6925C72.1741 21.407 72.7398 22.0115 73.3744 22.5062C74.5333 23.413 75.8854 23.8665 77.4306 23.8665C79.8864 23.8665 81.8869 22.6848 83.4321 20.3215L86.5777 22.1764C85.5015 23.9077 84.1771 25.2405 82.6043 26.1748C81.0315 27.1091 79.3069 27.5763 77.4306 27.5763C76.0233 27.5763 74.6851 27.3152 73.4158 26.7931C72.1465 26.2435 71.029 25.4878 70.0632 24.526C69.0975 23.5642 68.3387 22.4512 67.7868 21.1871C67.2626 19.9231 67.0004 18.5903 67.0004 17.1888C67.0004 15.7873 67.2626 14.4545 67.7868 13.1904C68.3387 11.8989 69.0975 10.7722 70.0632 9.81039C71.0014 8.84859 72.1051 8.10663 73.3744 7.5845C74.6713 7.06238 76.0233 6.80132 77.4306 6.80132C78.8378 6.80132 80.1761 7.06238 81.4454 7.5845C82.7422 8.10663 83.8598 8.84859 84.7979 9.81039C86.8398 11.8989 87.8608 14.3171 87.8608 17.0651C87.8608 17.5598 87.8194 18.0819 87.7366 18.6315H70.9738ZM77.4306 10.1814C76.2993 10.1814 75.2369 10.4287 74.2436 10.9233C73.2502 11.418 72.45 12.0775 71.843 12.9019C71.2635 13.6988 70.9738 14.5507 70.9738 15.4576H83.8874C83.8874 14.5507 83.5838 13.6988 82.9768 12.9019C82.3973 12.0775 81.6109 11.418 80.6176 10.9233C79.6242 10.4287 78.5619 10.1814 77.4306 10.1814Z" fill="white"/>
<path d="M99.1594 10.7172C98.4972 10.415 97.904 10.2638 97.3797 10.2638C96.276 10.2638 95.3654 10.6485 94.648 11.418C93.8754 12.2424 93.4891 13.1904 93.4891 14.2622V27.3702H89.9296V14.2622C89.9296 12.7782 90.3021 11.418 91.0471 10.1814C91.8197 8.94477 92.8682 7.98297 94.1927 7.29596C95.1861 6.8288 96.2484 6.59522 97.3797 6.59522C98.2903 6.59522 99.1595 6.7601 99.9872 7.08986C100.815 7.41962 101.684 7.95549 102.595 8.69745L99.1594 10.7172Z" fill="white"/>
<path d="M105.335 3.79225C104.811 3.79225 104.356 3.61363 103.969 3.25639C103.611 2.87167 103.431 2.41825 103.431 1.89613C103.431 1.374 103.611 0.934324 103.969 0.577082C104.356 0.192361 104.811 0 105.335 0C105.859 0 106.301 0.192361 106.66 0.577082C107.046 0.934324 107.239 1.374 107.239 1.89613C107.239 2.41825 107.046 2.87167 106.66 3.25639C106.301 3.61363 105.859 3.79225 105.335 3.79225ZM103.638 27.3702V6.7601H107.115V27.3702H103.638Z" fill="white"/>
<path d="M112.045 18.6315C112.045 19.291 112.279 19.978 112.748 20.6925C113.245 21.407 113.811 22.0115 114.445 22.5062C115.604 23.413 116.956 23.8665 118.502 23.8665C120.957 23.8665 122.958 22.6848 124.503 20.3215L127.649 22.1764C126.573 23.9077 125.248 25.2405 123.675 26.1748C122.103 27.1091 120.378 27.5763 118.502 27.5763C117.094 27.5763 115.756 27.3152 114.487 26.7931C113.218 26.2435 112.1 25.4878 111.134 24.526C110.169 23.5642 109.41 22.4512 108.858 21.1871C108.334 19.9231 108.071 18.5903 108.071 17.1888C108.071 15.7873 108.334 14.4545 108.858 13.1904C109.41 11.8989 110.169 10.7722 111.134 9.81039C112.072 8.84859 113.176 8.10663 114.445 7.5845C115.742 7.06238 117.094 6.80132 118.502 6.80132C119.909 6.80132 121.247 7.06238 122.516 7.5845C123.813 8.10663 124.931 8.84859 125.869 9.81039C127.911 11.8989 128.932 14.3171 128.932 17.0651C128.932 17.5598 128.89 18.0819 128.808 18.6315H112.045ZM118.502 10.1814C117.37 10.1814 116.308 10.4287 115.315 10.9233C114.321 11.418 113.521 12.0775 112.914 12.9019C112.335 13.6988 112.045 14.5507 112.045 15.4576H124.958C124.958 14.5507 124.655 13.6988 124.048 12.9019C123.468 12.0775 122.682 11.418 121.689 10.9233C120.695 10.4287 119.633 10.1814 118.502 10.1814Z" fill="white"/>
<path d="M143.79 27.3702V15.0041C143.79 13.7675 143.335 12.6958 142.424 11.789C141.541 10.9096 140.465 10.4699 139.196 10.4699C137.954 10.4699 136.878 10.9233 135.967 11.8302C135.553 12.2424 135.222 12.737 134.974 13.3141C134.726 13.8637 134.602 14.427 134.602 15.0041V27.3702H131.001V7.25474H134.602V8.94477C135.126 8.31273 135.816 7.79061 136.671 7.3784C137.526 6.9662 138.368 6.7601 139.196 6.7601C140.299 6.7601 141.348 6.97994 142.341 7.41962C143.362 7.83183 144.259 8.42265 145.032 9.19209C145.777 9.93405 146.356 10.8134 146.77 11.8302C147.212 12.8195 147.432 13.8774 147.432 15.0041V27.3702H143.79Z" fill="white"/>
<path d="M159.448 27.5763C158.041 27.5763 156.702 27.3152 155.433 26.7931C154.191 26.2435 153.088 25.4878 152.122 24.526C151.184 23.5917 150.439 22.4925 149.887 21.2284C149.363 19.9368 149.1 18.5903 149.1 17.1888C149.1 15.7873 149.363 14.4545 149.887 13.1904C150.439 11.8989 151.184 10.7859 152.122 9.85161C153.088 8.88981 154.191 8.14785 155.433 7.62572C156.702 7.07612 158.041 6.80132 159.448 6.80132C162.704 6.80132 165.463 8.17533 167.726 10.9233L164.497 12.7782C163.063 11.2668 161.379 10.5111 159.448 10.5111C158.537 10.5111 157.668 10.6898 156.84 11.047C156.04 11.3768 155.337 11.8439 154.729 12.4485C154.122 13.053 153.64 13.7675 153.281 14.5919C152.922 15.4163 152.743 16.282 152.743 17.1888C152.743 18.0956 152.922 18.9613 153.281 19.7857C153.64 20.6101 154.122 21.3245 154.729 21.9291C155.337 22.5337 156.04 23.0146 156.84 23.3718C157.668 23.7016 158.537 23.8665 159.448 23.8665C161.379 23.8665 163.063 23.1108 164.497 21.5993L167.726 23.4543C165.463 26.2023 162.704 27.5763 159.448 27.5763Z" fill="white"/>
<path d="M172.113 18.6315C172.113 19.291 172.348 19.978 172.817 20.6925C173.313 21.407 173.879 22.0115 174.514 22.5062C175.673 23.413 177.025 23.8665 178.57 23.8665C181.026 23.8665 183.026 22.6848 184.571 20.3215L187.717 22.1764C186.641 23.9077 185.316 25.2405 183.744 26.1748C182.171 27.1091 180.446 27.5763 178.57 27.5763C177.163 27.5763 175.824 27.3152 174.555 26.7931C173.286 26.2435 172.168 25.4878 171.202 24.526C170.237 23.5642 169.478 22.4512 168.926 21.1871C168.402 19.9231 168.14 18.5903 168.14 17.1888C168.14 15.7873 168.402 14.4545 168.926 13.1904C169.478 11.8989 170.237 10.7722 171.202 9.81039C172.141 8.84859 173.244 8.10663 174.514 7.5845C175.811 7.06238 177.163 6.80132 178.57 6.80132C179.977 6.80132 181.315 7.06238 182.585 7.5845C183.881 8.10663 184.999 8.84859 185.937 9.81039C187.979 11.8989 189 14.3171 189 17.0651C189 17.5598 188.959 18.0819 188.876 18.6315H172.113ZM178.57 10.1814C177.439 10.1814 176.376 10.4287 175.383 10.9233C174.389 11.418 173.589 12.0775 172.982 12.9019C172.403 13.6988 172.113 14.5507 172.113 15.4576H185.027C185.027 14.5507 184.723 13.6988 184.116 12.9019C183.537 12.0775 182.75 11.418 181.757 10.9233C180.763 10.4287 179.701 10.1814 178.57 10.1814Z" fill="white"/>
<path d="M40.5204 40H31.7265L23.3323 26.6291C21.2537 22.383 22.4662 17.4429 23.3323 15.5036L31.8264 2.7451H40.5204L29.9277 18.1574C29.0484 20.6887 29.5613 22.9546 29.9277 23.7712L40.5204 40Z" fill="#47B671"/>
<path d="M0 40H8.79391L17.1881 26.6291C19.2667 22.383 18.0542 17.4429 17.1881 15.5036L8.69398 2.7451H4.55645e-06L10.5927 18.1574C11.4721 20.6887 10.9591 22.9546 10.5927 23.7712L0 40Z" fill="#47B671"/>
<path d="M59.7892 37.6471V35.6078L57.9717 32.1569H58.8608L60.2849 35.0431H60.0882L61.5045 32.1569H62.3857L60.576 35.6078V37.6471H59.7892Z" fill="white"/>
<path d="M64.1779 37.7412C63.8055 37.7412 63.4698 37.6549 63.1708 37.4824C62.8771 37.3098 62.6437 37.0693 62.4706 36.7608C62.3027 36.4471 62.2188 36.0863 62.2188 35.6784C62.2188 35.2601 62.3054 34.8967 62.4785 34.5882C62.6516 34.2745 62.8876 34.0314 63.1866 33.8588C63.4856 33.6863 63.8213 33.6 64.1937 33.6C64.5714 33.6 64.9071 33.6863 65.2008 33.8588C65.4945 34.0314 65.7253 34.2719 65.8932 34.5804C66.0663 34.8889 66.1528 35.2523 66.1528 35.6706C66.1528 36.0889 66.0663 36.4523 65.8932 36.7608C65.7253 37.0693 65.4919 37.3098 65.1929 37.4824C64.8939 37.6549 64.5556 37.7412 64.1779 37.7412ZM64.1779 37.0667C64.393 37.0667 64.5871 37.0144 64.7602 36.9098C64.9385 36.8052 65.0802 36.651 65.1851 36.4471C65.2952 36.2379 65.3503 35.9791 65.3503 35.6706C65.3503 35.3621 65.2978 35.1059 65.1929 34.902C65.088 34.6928 64.9464 34.5359 64.7681 34.4314C64.595 34.3268 64.4035 34.2745 64.1937 34.2745C63.9839 34.2745 63.7898 34.3268 63.6115 34.4314C63.4331 34.5359 63.2889 34.6928 63.1787 34.902C63.0738 35.1059 63.0213 35.3621 63.0213 35.6706C63.0213 35.9791 63.0738 36.2379 63.1787 36.4471C63.2889 36.651 63.4305 36.8052 63.6036 36.9098C63.7819 37.0144 63.9734 37.0667 64.1779 37.0667Z" fill="white"/>
<path d="M68.534 37.7412C68.2245 37.7412 67.9543 37.6784 67.7235 37.5529C67.498 37.4275 67.3223 37.2392 67.1964 36.9882C67.0757 36.7373 67.0154 36.4209 67.0154 36.0392V33.6941H67.8022V35.9529C67.8022 36.3242 67.8835 36.6039 68.0461 36.7922C68.2087 36.9804 68.4422 37.0745 68.7464 37.0745C68.951 37.0745 69.1346 37.0248 69.2972 36.9255C69.465 36.8261 69.5961 36.6824 69.6906 36.4941C69.785 36.3059 69.8322 36.0758 69.8322 35.8039V33.6941H70.619V37.6471H69.9187L69.8637 36.9725C69.743 37.2131 69.5673 37.4013 69.3365 37.5373C69.1057 37.6732 68.8382 37.7412 68.534 37.7412Z" fill="white"/>
<path d="M71.6962 37.6471V33.6941H72.4044L72.4752 34.4392C72.5643 34.2614 72.6797 34.1124 72.8214 33.9922C72.963 33.8667 73.1282 33.7699 73.317 33.702C73.5111 33.634 73.7314 33.6 73.978 33.6V34.4314H73.6947C73.5321 34.4314 73.3774 34.4523 73.2305 34.4941C73.0836 34.5307 72.9525 34.5961 72.8371 34.6902C72.7269 34.7843 72.6404 34.9124 72.5775 35.0745C72.5145 35.2366 72.483 35.4379 72.483 35.6784V37.6471H71.6962Z" fill="white"/>
<path d="M75.9583 39.3726V38.7059H76.273C76.4619 38.7059 76.5956 38.6667 76.6743 38.5882C76.753 38.5098 76.7923 38.3791 76.7923 38.1961V33.6941H77.5791V38.2118C77.5791 38.4837 77.5319 38.7059 77.4375 38.8784C77.3483 39.051 77.2146 39.1765 77.0362 39.2549C76.8579 39.3333 76.6428 39.3726 76.3911 39.3726H75.9583ZM77.1936 32.949C77.0415 32.949 76.9156 32.902 76.8159 32.8078C76.7215 32.7137 76.6743 32.5935 76.6743 32.4471C76.6743 32.3059 76.7215 32.1908 76.8159 32.102C76.9156 32.0078 77.0415 31.9608 77.1936 31.9608C77.3405 31.9608 77.4611 32.0078 77.5555 32.102C77.6552 32.1908 77.705 32.3059 77.705 32.4471C77.705 32.5935 77.6552 32.7137 77.5555 32.8078C77.4611 32.902 77.3405 32.949 77.1936 32.949Z" fill="white"/>
<path d="M80.5057 37.7412C80.1333 37.7412 79.7975 37.6549 79.4986 37.4824C79.2048 37.3098 78.9714 37.0693 78.7983 36.7608C78.6305 36.4471 78.5465 36.0863 78.5465 35.6784C78.5465 35.2601 78.6331 34.8967 78.8062 34.5882C78.9793 34.2745 79.2153 34.0314 79.5143 33.8588C79.8133 33.6863 80.149 33.6 80.5214 33.6C80.8991 33.6 81.2348 33.6863 81.5285 33.8588C81.8223 34.0314 82.0531 34.2719 82.2209 34.5804C82.394 34.8889 82.4805 35.2523 82.4805 35.6706C82.4805 36.0889 82.394 36.4523 82.2209 36.7608C82.0531 37.0693 81.8196 37.3098 81.5206 37.4824C81.2217 37.6549 80.8833 37.7412 80.5057 37.7412ZM80.5057 37.0667C80.7207 37.0667 80.9148 37.0144 81.0879 36.9098C81.2663 36.8052 81.4079 36.651 81.5128 36.4471C81.6229 36.2379 81.678 35.9791 81.678 35.6706C81.678 35.3621 81.6255 35.1059 81.5206 34.902C81.4157 34.6928 81.2741 34.5359 81.0958 34.4314C80.9227 34.3268 80.7312 34.2745 80.5214 34.2745C80.3116 34.2745 80.1175 34.3268 79.9392 34.4314C79.7608 34.5359 79.6166 34.6928 79.5064 34.902C79.4015 35.1059 79.3491 35.3621 79.3491 35.6706C79.3491 35.9791 79.4015 36.2379 79.5064 36.4471C79.6166 36.651 79.7582 36.8052 79.9313 36.9098C80.1096 37.0144 80.3011 37.0667 80.5057 37.0667Z" fill="white"/>
<path d="M84.8617 37.7412C84.5522 37.7412 84.2821 37.6784 84.0513 37.5529C83.8257 37.4275 83.65 37.2392 83.5241 36.9882C83.4035 36.7373 83.3431 36.4209 83.3431 36.0392V33.6941H84.1299V35.9529C84.1299 36.3242 84.2113 36.6039 84.3739 36.7922C84.5365 36.9804 84.7699 37.0745 85.0741 37.0745C85.2787 37.0745 85.4623 37.0248 85.6249 36.9255C85.7927 36.8261 85.9239 36.6824 86.0183 36.4941C86.1127 36.3059 86.1599 36.0758 86.1599 35.8039V33.6941H86.9467V37.6471H86.2465L86.1914 36.9725C86.0707 37.2131 85.895 37.4013 85.6642 37.5373C85.4334 37.6732 85.1659 37.7412 84.8617 37.7412Z" fill="white"/>
<path d="M88.024 37.6471V33.6941H88.7321L88.8029 34.4392C88.8921 34.2614 89.0075 34.1124 89.1491 33.9922C89.2907 33.8667 89.4559 33.7699 89.6448 33.702C89.8388 33.634 90.0592 33.6 90.3057 33.6V34.4314H90.0224C89.8598 34.4314 89.7051 34.4523 89.5582 34.4941C89.4113 34.5307 89.2802 34.5961 89.1648 34.6902C89.0547 34.7843 88.9681 34.9124 88.9052 35.0745C88.8422 35.2366 88.8108 35.4379 88.8108 35.6784V37.6471H88.024Z" fill="white"/>
<path d="M91.0283 37.6471V33.6941H91.7364L91.7836 34.3686C91.9095 34.1333 92.0878 33.9477 92.3186 33.8118C92.5494 33.6706 92.8143 33.6 93.1133 33.6C93.428 33.6 93.6981 33.6627 93.9237 33.7882C94.1492 33.9137 94.325 34.1046 94.4509 34.3608C94.5767 34.6118 94.6397 34.9281 94.6397 35.3098V37.6471H93.8529V35.3882C93.8529 35.0222 93.7716 34.7451 93.609 34.5569C93.4464 34.3686 93.2103 34.2745 92.9008 34.2745C92.6963 34.2745 92.5127 34.3242 92.3501 34.4235C92.1875 34.5176 92.0563 34.6588 91.9567 34.8471C91.8623 35.0353 91.8151 35.2654 91.8151 35.5373V37.6471H91.0283Z" fill="white"/>
<path d="M97.44 37.7412C97.0624 37.7412 96.7267 37.6549 96.4329 37.4824C96.1392 37.3098 95.9084 37.0693 95.7405 36.7608C95.5779 36.4523 95.4966 36.0941 95.4966 35.6863C95.4966 35.268 95.5779 34.9046 95.7405 34.5961C95.9084 34.2824 96.1392 34.0392 96.4329 33.8667C96.7267 33.6889 97.0676 33.6 97.4558 33.6C97.8439 33.6 98.177 33.6863 98.455 33.8588C98.733 34.0314 98.9481 34.2614 99.1002 34.549C99.2523 34.8314 99.3284 35.1451 99.3284 35.4902C99.3284 35.5425 99.3257 35.6 99.3205 35.6627C99.3205 35.7203 99.3179 35.7856 99.3126 35.8588H96.071V35.302H98.5416C98.5258 34.9725 98.4157 34.7163 98.2111 34.5333C98.0065 34.3451 97.7521 34.251 97.4479 34.251C97.2328 34.251 97.0361 34.3007 96.8578 34.4C96.6795 34.4941 96.5352 34.6353 96.425 34.8235C96.3201 35.0065 96.2677 35.2392 96.2677 35.5216V35.7412C96.2677 36.034 96.3201 36.2824 96.425 36.4863C96.5352 36.685 96.6795 36.8366 96.8578 36.9412C97.0361 37.0405 97.2302 37.0902 97.44 37.0902C97.6918 37.0902 97.899 37.0353 98.0616 36.9255C98.2242 36.8157 98.3449 36.6667 98.4235 36.4784H99.2103C99.1422 36.719 99.0267 36.9359 98.8641 37.1294C98.7015 37.3176 98.4996 37.4667 98.2583 37.5765C98.0223 37.6863 97.7495 37.7412 97.44 37.7412Z" fill="white"/>
<path d="M100.49 39.3726L101.458 37.2078H101.229L99.6637 33.6941H100.513L101.757 36.5647L103.008 33.6941H103.834L101.316 39.3726H100.49Z" fill="white"/>
<path d="M108.076 37.7412C107.74 37.7412 107.446 37.6863 107.195 37.5765C106.943 37.4667 106.743 37.3124 106.597 37.1137C106.45 36.915 106.361 36.6824 106.329 36.4157H107.132C107.158 36.5412 107.208 36.6562 107.281 36.7608C107.36 36.8654 107.465 36.949 107.596 37.0118C107.732 37.0745 107.892 37.1059 108.076 37.1059C108.249 37.1059 108.39 37.0824 108.501 37.0353C108.616 36.983 108.7 36.915 108.752 36.8314C108.805 36.7425 108.831 36.6484 108.831 36.549C108.831 36.4026 108.794 36.2928 108.721 36.2196C108.653 36.1412 108.548 36.081 108.406 36.0392C108.27 35.9922 108.105 35.9503 107.911 35.9137C107.727 35.8824 107.549 35.8405 107.376 35.7882C107.208 35.7307 107.056 35.6601 106.919 35.5765C106.788 35.4928 106.683 35.3882 106.604 35.2627C106.526 35.132 106.486 34.9725 106.486 34.7843C106.486 34.5595 106.547 34.3582 106.667 34.1804C106.788 33.9974 106.959 33.8562 107.179 33.7569C107.404 33.6523 107.669 33.6 107.973 33.6C108.414 33.6 108.768 33.7046 109.036 33.9137C109.303 34.1229 109.461 34.4183 109.508 34.8H108.745C108.724 34.6222 108.645 34.4863 108.509 34.3922C108.372 34.2928 108.191 34.2431 107.966 34.2431C107.74 34.2431 107.567 34.2876 107.446 34.3765C107.326 34.4654 107.265 34.583 107.265 34.7294C107.265 34.8235 107.299 34.9072 107.368 34.9804C107.436 35.0536 107.536 35.1163 107.667 35.1686C107.803 35.2157 107.968 35.2601 108.162 35.302C108.44 35.3542 108.689 35.4196 108.91 35.498C109.13 35.5765 109.306 35.6915 109.437 35.8431C109.568 35.9948 109.634 36.2118 109.634 36.4941C109.639 36.7399 109.576 36.9569 109.445 37.1451C109.319 37.3333 109.138 37.4797 108.902 37.5843C108.671 37.6889 108.396 37.7412 108.076 37.7412Z" fill="white"/>
<path d="M112.035 37.6471C111.783 37.6471 111.566 37.6078 111.382 37.5294C111.199 37.451 111.057 37.3203 110.957 37.1373C110.858 36.9542 110.808 36.7059 110.808 36.3922V34.3608H110.123V33.6941H110.808L110.902 32.7059H111.595V33.6941H112.72V34.3608H111.595V36.4C111.595 36.6248 111.642 36.7791 111.736 36.8627C111.831 36.9412 111.993 36.9804 112.224 36.9804H112.68V37.6471H112.035Z" fill="white"/>
<path d="M114.901 37.7412C114.576 37.7412 114.306 37.6863 114.091 37.5765C113.876 37.4667 113.716 37.3203 113.611 37.1373C113.506 36.949 113.454 36.7477 113.454 36.5333C113.454 36.2719 113.522 36.0497 113.658 35.8667C113.795 35.6784 113.989 35.5346 114.24 35.4353C114.492 35.3359 114.794 35.2863 115.145 35.2863H116.176C116.176 35.0562 116.142 34.8654 116.074 34.7137C116.006 34.5621 115.903 34.4497 115.767 34.3765C115.636 34.298 115.468 34.2588 115.263 34.2588C115.027 34.2588 114.825 34.3163 114.657 34.4314C114.49 34.5412 114.385 34.7059 114.343 34.9255H113.556C113.587 34.6484 113.682 34.4131 113.839 34.2196C114.002 34.0209 114.209 33.8693 114.461 33.7647C114.713 33.6549 114.98 33.6 115.263 33.6C115.636 33.6 115.948 33.6654 116.2 33.7961C116.451 33.9268 116.64 34.1124 116.766 34.3529C116.897 34.5882 116.963 34.8706 116.963 35.2V37.6471H116.278L116.215 36.9804C116.158 37.085 116.089 37.1843 116.011 37.2784C115.932 37.3725 115.838 37.4536 115.728 37.5216C115.623 37.5895 115.499 37.6418 115.358 37.6784C115.221 37.7203 115.069 37.7412 114.901 37.7412ZM115.051 37.1059C115.219 37.1059 115.371 37.0719 115.507 37.0039C115.644 36.9359 115.759 36.8444 115.853 36.7294C115.953 36.6092 116.026 36.4758 116.074 36.3294C116.126 36.1778 116.155 36.0235 116.16 35.8667V35.8431H115.224C114.998 35.8431 114.815 35.8719 114.673 35.9294C114.537 35.9817 114.437 36.0549 114.374 36.149C114.311 36.2431 114.28 36.3529 114.28 36.4784C114.28 36.6091 114.309 36.7216 114.366 36.8157C114.429 36.9046 114.518 36.9752 114.634 37.0275C114.749 37.0797 114.888 37.1059 115.051 37.1059Z" fill="white"/>
<path d="M117.967 37.6471V33.6941H118.675L118.746 34.4392C118.835 34.2614 118.951 34.1124 119.092 33.9922C119.234 33.8667 119.399 33.7699 119.588 33.702C119.782 33.634 120.002 33.6 120.249 33.6V34.4314H119.966C119.803 34.4314 119.648 34.4523 119.501 34.4941C119.354 34.5307 119.223 34.5961 119.108 34.6902C118.998 34.7843 118.911 34.9124 118.848 35.0745C118.785 35.2366 118.754 35.4379 118.754 35.6784V37.6471H117.967Z" fill="white"/>
<path d="M122.608 37.6471C122.356 37.6471 122.138 37.6078 121.955 37.5294C121.771 37.451 121.63 37.3203 121.53 37.1373C121.43 36.9542 121.381 36.7059 121.381 36.3922V34.3608H120.696V33.6941H121.381L121.475 32.7059H122.167V33.6941H123.292V34.3608H122.167V36.4C122.167 36.6248 122.215 36.7791 122.309 36.8627C122.403 36.9412 122.566 36.9804 122.797 36.9804H123.253V37.6471H122.608Z" fill="white"/>
<path d="M125.694 37.7412C125.359 37.7412 125.065 37.6863 124.813 37.5765C124.561 37.4667 124.362 37.3124 124.215 37.1137C124.068 36.915 123.979 36.6824 123.948 36.4157H124.75C124.776 36.5412 124.826 36.6562 124.9 36.7608C124.978 36.8654 125.083 36.949 125.214 37.0118C125.351 37.0745 125.511 37.1059 125.694 37.1059C125.867 37.1059 126.009 37.0824 126.119 37.0353C126.235 36.983 126.319 36.915 126.371 36.8314C126.423 36.7425 126.45 36.6484 126.45 36.549C126.45 36.4026 126.413 36.2928 126.34 36.2196C126.271 36.1412 126.166 36.081 126.025 36.0392C125.888 35.9922 125.723 35.9503 125.529 35.9137C125.346 35.8824 125.167 35.8405 124.994 35.7882C124.826 35.7307 124.674 35.6601 124.538 35.5765C124.407 35.4928 124.302 35.3882 124.223 35.2627C124.144 35.132 124.105 34.9725 124.105 34.7843C124.105 34.5595 124.165 34.3582 124.286 34.1804C124.407 33.9974 124.577 33.8562 124.797 33.7569C125.023 33.6523 125.288 33.6 125.592 33.6C126.033 33.6 126.387 33.7046 126.654 33.9137C126.922 34.1229 127.079 34.4183 127.126 34.8H126.363C126.342 34.6222 126.263 34.4863 126.127 34.3922C125.991 34.2928 125.81 34.2431 125.584 34.2431C125.359 34.2431 125.186 34.2876 125.065 34.3765C124.944 34.4654 124.884 34.583 124.884 34.7294C124.884 34.8235 124.918 34.9072 124.986 34.9804C125.054 35.0536 125.154 35.1163 125.285 35.1686C125.422 35.2157 125.587 35.2601 125.781 35.302C126.059 35.3542 126.308 35.4196 126.528 35.498C126.749 35.5765 126.924 35.6915 127.056 35.8431C127.187 35.9948 127.252 36.2118 127.252 36.4941C127.257 36.7399 127.195 36.9569 127.063 37.1451C126.937 37.3333 126.757 37.4797 126.52 37.5843C126.29 37.6889 126.014 37.7412 125.694 37.7412Z" fill="white"/>
<path d="M130.994 37.6471L129.83 33.6941H130.609L131.474 36.9882L131.325 36.9804L132.285 33.6941H133.166L134.126 36.9804L133.976 36.9882L134.834 33.6941H135.629L134.464 37.6471H133.654L132.647 34.2196H132.804L131.797 37.6471H130.994Z" fill="white"/>
<path d="M136.394 37.6471V33.6941H137.181V37.6471H136.394ZM136.795 32.949C136.643 32.949 136.517 32.902 136.417 32.8078C136.323 32.7137 136.276 32.5935 136.276 32.4471C136.276 32.3059 136.323 32.1908 136.417 32.102C136.517 32.0078 136.643 31.9608 136.795 31.9608C136.942 31.9608 137.065 32.0078 137.165 32.102C137.264 32.1908 137.314 32.3059 137.314 32.4471C137.314 32.5935 137.264 32.7137 137.165 32.8078C137.065 32.902 136.942 32.949 136.795 32.949Z" fill="white"/>
<path d="M139.942 37.6471C139.69 37.6471 139.473 37.6078 139.289 37.5294C139.106 37.451 138.964 37.3203 138.864 37.1373C138.765 36.9542 138.715 36.7059 138.715 36.3922V34.3608H138.03V33.6941H138.715L138.809 32.7059H139.502V33.6941H140.627V34.3608H139.502V36.4C139.502 36.6248 139.549 36.7791 139.643 36.8627C139.738 36.9412 139.9 36.9804 140.131 36.9804H140.587V37.6471H139.942Z" fill="white"/>
<path d="M141.494 37.6471V32H142.281V34.3373C142.412 34.1072 142.593 33.9268 142.824 33.7961C143.06 33.6654 143.32 33.6 143.603 33.6C143.918 33.6 144.188 33.6654 144.413 33.7961C144.639 33.9216 144.812 34.1124 144.933 34.3686C145.053 34.6196 145.114 34.9359 145.114 35.3176V37.6471H144.335V35.3961C144.335 35.0301 144.256 34.7529 144.099 34.5647C143.941 34.3712 143.708 34.2745 143.398 34.2745C143.189 34.2745 143 34.3242 142.832 34.4235C142.664 34.5229 142.53 34.6693 142.431 34.8627C142.331 35.051 142.281 35.281 142.281 35.5529V37.6471H141.494Z" fill="white"/>
<path d="M149.927 37.7412C149.549 37.7412 149.214 37.6549 148.92 37.4824C148.626 37.3098 148.395 37.0693 148.227 36.7608C148.065 36.4523 147.984 36.0941 147.984 35.6863C147.984 35.268 148.065 34.9046 148.227 34.5961C148.395 34.2824 148.626 34.0392 148.92 33.8667C149.214 33.6889 149.555 33.6 149.943 33.6C150.331 33.6 150.664 33.6863 150.942 33.8588C151.22 34.0314 151.435 34.2614 151.587 34.549C151.739 34.8314 151.815 35.1451 151.815 35.4902C151.815 35.5425 151.813 35.6 151.807 35.6627C151.807 35.7203 151.805 35.7856 151.8 35.8588H148.558V35.302H151.028C151.013 34.9725 150.903 34.7163 150.698 34.5333C150.493 34.3451 150.239 34.251 149.935 34.251C149.72 34.251 149.523 34.3007 149.345 34.4C149.166 34.4941 149.022 34.6353 148.912 34.8235C148.807 35.0065 148.755 35.2392 148.755 35.5216V35.7412C148.755 36.034 148.807 36.2824 148.912 36.4863C149.022 36.685 149.166 36.8366 149.345 36.9412C149.523 37.0405 149.717 37.0902 149.927 37.0902C150.179 37.0902 150.386 37.0353 150.549 36.9255C150.711 36.8157 150.832 36.6667 150.91 36.4784H151.697C151.629 36.719 151.514 36.9359 151.351 37.1294C151.188 37.3176 150.986 37.4667 150.745 37.5765C150.509 37.6863 150.236 37.7412 149.927 37.7412Z" fill="white"/>
<path d="M152.097 37.6471L153.466 35.6706L152.097 33.6941H152.946L153.985 35.2314L155.031 33.6941H155.873L154.504 35.6706L155.873 37.6471H155.031L153.985 36.102L152.946 37.6471H152.097Z" fill="white"/>
<path d="M156.562 39.3726V33.6941H157.27L157.349 34.3059C157.433 34.1856 157.538 34.0732 157.663 33.9686C157.789 33.8588 157.939 33.7699 158.112 33.702C158.29 33.634 158.497 33.6 158.734 33.6C159.111 33.6 159.442 33.6915 159.725 33.8745C160.013 34.0575 160.236 34.3059 160.394 34.6196C160.556 34.9281 160.638 35.281 160.638 35.6784C160.638 36.0758 160.556 36.4314 160.394 36.7451C160.231 37.0536 160.006 37.2967 159.717 37.4745C159.434 37.6523 159.103 37.7412 158.726 37.7412C158.416 37.7412 158.143 37.681 157.907 37.5608C157.671 37.4353 157.485 37.2627 157.349 37.0431V39.3726H156.562ZM158.6 37.0588C158.841 37.0588 159.054 37.0013 159.237 36.8863C159.426 36.7712 159.573 36.6091 159.678 36.4C159.788 36.1908 159.843 35.9477 159.843 35.6706C159.843 35.3935 159.788 35.1529 159.678 34.949C159.573 34.7399 159.426 34.5778 159.237 34.4627C159.054 34.3425 158.841 34.2824 158.6 34.2824C158.353 34.2824 158.136 34.3425 157.947 34.4627C157.763 34.5778 157.619 34.7399 157.514 34.949C157.409 35.1529 157.357 35.3935 157.357 35.6706C157.357 35.9477 157.409 36.1908 157.514 36.4C157.619 36.6091 157.763 36.7712 157.947 36.8863C158.136 37.0013 158.353 37.0588 158.6 37.0588Z" fill="white"/>
<path d="M163.35 37.7412C162.973 37.7412 162.637 37.6549 162.343 37.4824C162.049 37.3098 161.819 37.0693 161.651 36.7608C161.488 36.4523 161.407 36.0941 161.407 35.6863C161.407 35.268 161.488 34.9046 161.651 34.5961C161.819 34.2824 162.049 34.0392 162.343 33.8667C162.637 33.6889 162.978 33.6 163.366 33.6C163.754 33.6 164.087 33.6863 164.365 33.8588C164.643 34.0314 164.858 34.2614 165.01 34.549C165.163 34.8314 165.239 35.1451 165.239 35.4902C165.239 35.5425 165.236 35.6 165.231 35.6627C165.231 35.7203 165.228 35.7856 165.223 35.8588H161.981V35.302H164.452C164.436 34.9725 164.326 34.7163 164.121 34.5333C163.917 34.3451 163.662 34.251 163.358 34.251C163.143 34.251 162.946 34.3007 162.768 34.4C162.59 34.4941 162.445 34.6353 162.335 34.8235C162.23 35.0065 162.178 35.2392 162.178 35.5216V35.7412C162.178 36.034 162.23 36.2824 162.335 36.4863C162.445 36.685 162.59 36.8366 162.768 36.9412C162.946 37.0405 163.14 37.0902 163.35 37.0902C163.602 37.0902 163.809 37.0353 163.972 36.9255C164.134 36.8157 164.255 36.6667 164.334 36.4784H165.121C165.052 36.719 164.937 36.9359 164.774 37.1294C164.612 37.3176 164.41 37.4667 164.169 37.5765C163.932 37.6863 163.66 37.7412 163.35 37.7412Z" fill="white"/>
<path d="M166.113 37.6471V33.6941H166.821L166.892 34.4392C166.981 34.2614 167.096 34.1124 167.238 33.9922C167.379 33.8667 167.545 33.7699 167.734 33.702C167.928 33.634 168.148 33.6 168.394 33.6V34.4314H168.111C167.949 34.4314 167.794 34.4523 167.647 34.4941C167.5 34.5307 167.369 34.5961 167.254 34.6902C167.143 34.7843 167.057 34.9124 166.994 35.0745C166.931 35.2366 166.9 35.4379 166.9 35.6784V37.6471H166.113Z" fill="white"/>
<path d="M169.172 37.6471V33.6941H169.959V37.6471H169.172ZM169.573 32.949C169.421 32.949 169.295 32.902 169.196 32.8078C169.101 32.7137 169.054 32.5935 169.054 32.4471C169.054 32.3059 169.101 32.1908 169.196 32.102C169.295 32.0078 169.421 31.9608 169.573 31.9608C169.72 31.9608 169.844 32.0078 169.943 32.102C170.043 32.1908 170.093 32.3059 170.093 32.4471C170.093 32.5935 170.043 32.7137 169.943 32.8078C169.844 32.902 169.72 32.949 169.573 32.949Z" fill="white"/>
<path d="M172.878 37.7412C172.5 37.7412 172.165 37.6549 171.871 37.4824C171.577 37.3098 171.346 37.0693 171.178 36.7608C171.016 36.4523 170.935 36.0941 170.935 35.6863C170.935 35.268 171.016 34.9046 171.178 34.5961C171.346 34.2824 171.577 34.0392 171.871 33.8667C172.165 33.6889 172.506 33.6 172.894 33.6C173.282 33.6 173.615 33.6863 173.893 33.8588C174.171 34.0314 174.386 34.2614 174.538 34.549C174.69 34.8314 174.766 35.1451 174.766 35.4902C174.766 35.5425 174.764 35.6 174.758 35.6627C174.758 35.7203 174.756 35.7856 174.751 35.8588H171.509V35.302H173.979C173.964 34.9725 173.854 34.7163 173.649 34.5333C173.444 34.3451 173.19 34.251 172.886 34.251C172.671 34.251 172.474 34.3007 172.296 34.4C172.117 34.4941 171.973 34.6353 171.863 34.8235C171.758 35.0065 171.706 35.2392 171.706 35.5216V35.7412C171.706 36.034 171.758 36.2824 171.863 36.4863C171.973 36.685 172.117 36.8366 172.296 36.9412C172.474 37.0405 172.668 37.0902 172.878 37.0902C173.13 37.0902 173.337 37.0353 173.5 36.9255C173.662 36.8157 173.783 36.6667 173.861 36.4784H174.648C174.58 36.719 174.465 36.9359 174.302 37.1294C174.139 37.3176 173.938 37.4667 173.696 37.5765C173.46 37.6863 173.187 37.7412 172.878 37.7412Z" fill="white"/>
<path d="M175.64 37.6471V33.6941H176.349L176.396 34.3686C176.522 34.1333 176.7 33.9477 176.931 33.8118C177.162 33.6706 177.426 33.6 177.725 33.6C178.04 33.6 178.31 33.6627 178.536 33.7882C178.761 33.9137 178.937 34.1046 179.063 34.3608C179.189 34.6118 179.252 34.9281 179.252 35.3098V37.6471H178.465V35.3882C178.465 35.0222 178.384 34.7451 178.221 34.5569C178.059 34.3686 177.822 34.2745 177.513 34.2745C177.308 34.2745 177.125 34.3242 176.962 34.4235C176.8 34.5176 176.669 34.6588 176.569 34.8471C176.474 35.0353 176.427 35.2654 176.427 35.5373V37.6471H175.64Z" fill="white"/>
<path d="M182.092 37.7412C181.709 37.7412 181.368 37.6549 181.069 37.4824C180.77 37.3046 180.534 37.0614 180.361 36.7529C180.193 36.4444 180.109 36.0863 180.109 35.6784C180.109 35.2654 180.193 34.9046 180.361 34.5961C180.534 34.2824 180.77 34.0392 181.069 33.8667C181.368 33.6889 181.709 33.6 182.092 33.6C182.574 33.6 182.978 33.7255 183.303 33.9765C183.628 34.2275 183.836 34.5673 183.925 34.9961H183.107C183.054 34.766 182.933 34.5882 182.745 34.4627C182.561 34.3373 182.341 34.2745 182.084 34.2745C181.874 34.2745 181.68 34.3294 181.501 34.4392C181.323 34.5438 181.179 34.7007 181.069 34.9098C180.964 35.1137 180.911 35.3673 180.911 35.6706C180.911 35.8954 180.943 36.0967 181.006 36.2745C181.069 36.4471 181.153 36.5935 181.258 36.7137C181.368 36.834 181.494 36.9255 181.635 36.9882C181.777 37.0458 181.926 37.0745 182.084 37.0745C182.257 37.0745 182.412 37.0484 182.548 36.9961C182.69 36.9386 182.808 36.8549 182.902 36.7451C183.002 36.6353 183.07 36.5046 183.107 36.3529H183.925C183.836 36.7712 183.628 37.1085 183.303 37.3647C182.978 37.6157 182.574 37.7412 182.092 37.7412Z" fill="white"/>
<path d="M186.639 37.7412C186.262 37.7412 185.926 37.6549 185.632 37.4824C185.338 37.3098 185.108 37.0693 184.94 36.7608C184.777 36.4523 184.696 36.0941 184.696 35.6863C184.696 35.268 184.777 34.9046 184.94 34.5961C185.108 34.2824 185.338 34.0392 185.632 33.8667C185.926 33.6889 186.267 33.6 186.655 33.6C187.043 33.6 187.376 33.6863 187.654 33.8588C187.932 34.0314 188.147 34.2614 188.299 34.549C188.452 34.8314 188.528 35.1451 188.528 35.4902C188.528 35.5425 188.525 35.6 188.52 35.6627C188.52 35.7203 188.517 35.7856 188.512 35.8588H185.27V35.302H187.741C187.725 34.9725 187.615 34.7163 187.41 34.5333C187.206 34.3451 186.951 34.251 186.647 34.251C186.432 34.251 186.235 34.3007 186.057 34.4C185.879 34.4941 185.735 34.6353 185.624 34.8235C185.519 35.0065 185.467 35.2392 185.467 35.5216V35.7412C185.467 36.034 185.519 36.2824 185.624 36.4863C185.735 36.685 185.879 36.8366 186.057 36.9412C186.235 37.0405 186.43 37.0902 186.639 37.0902C186.891 37.0902 187.098 37.0353 187.261 36.9255C187.424 36.8157 187.544 36.6667 187.623 36.4784H188.41C188.341 36.719 188.226 36.9359 188.063 37.1294C187.901 37.3176 187.699 37.4667 187.458 37.5765C187.222 37.6863 186.949 37.7412 186.639 37.7412Z" fill="white"/>
</svg>
